<mxfile host="app.diagrams.net" modified="2024-07-17T21:58:52.276Z" agent="Mozilla/5.0 (X11; Linux x86_64; rv:109.0) Gecko/20100101 Firefox/115.0" etag="YTgIhwuooMIgOAcZnRkB" version="24.7.0" type="github">
  <diagram id="C5RBs43oDa-KdzZeNtuy" name="Page-1">
    <mxGraphModel dx="2044" dy="1647" grid="1" gridSize="10" guides="1" tooltips="1" connect="1" arrows="1" fold="1" page="1" pageScale="1" pageWidth="827" pageHeight="1169" math="0" shadow="0">
      <root>
        <mxCell id="WIyWlLk6GJQsqaUBKTNV-0" />
        <mxCell id="WIyWlLk6GJQsqaUBKTNV-1" parent="WIyWlLk6GJQsqaUBKTNV-0" />
        <mxCell id="7Lk9t5gBkU4us9C5YFoJ-6" value="Student" style="swimlane;fontStyle=0;align=center;verticalAlign=top;childLayout=stackLayout;horizontal=1;startSize=26;horizontalStack=0;resizeParent=1;resizeLast=0;collapsible=1;marginBottom=0;rounded=0;shadow=0;strokeWidth=1;" parent="WIyWlLk6GJQsqaUBKTNV-1" vertex="1">
          <mxGeometry x="300" y="-198" width="160" height="138" as="geometry">
            <mxRectangle x="130" y="380" width="160" height="26" as="alternateBounds" />
          </mxGeometry>
        </mxCell>
        <mxCell id="7Lk9t5gBkU4us9C5YFoJ-7" value="Student Number" style="text;align=left;verticalAlign=top;spacingLeft=4;spacingRight=4;overflow=hidden;rotatable=0;points=[[0,0.5],[1,0.5]];portConstraint=eastwest;" parent="7Lk9t5gBkU4us9C5YFoJ-6" vertex="1">
          <mxGeometry y="26" width="160" height="26" as="geometry" />
        </mxCell>
        <mxCell id="7Lk9t5gBkU4us9C5YFoJ-8" value="Average Mark" style="text;align=left;verticalAlign=top;spacingLeft=4;spacingRight=4;overflow=hidden;rotatable=0;points=[[0,0.5],[1,0.5]];portConstraint=eastwest;rounded=0;shadow=0;html=0;" parent="7Lk9t5gBkU4us9C5YFoJ-6" vertex="1">
          <mxGeometry y="52" width="160" height="26" as="geometry" />
        </mxCell>
        <mxCell id="7Lk9t5gBkU4us9C5YFoJ-9" value="" style="line;html=1;strokeWidth=1;align=left;verticalAlign=middle;spacingTop=-1;spacingLeft=3;spacingRight=3;rotatable=0;labelPosition=right;points=[];portConstraint=eastwest;" parent="7Lk9t5gBkU4us9C5YFoJ-6" vertex="1">
          <mxGeometry y="78" width="160" height="8" as="geometry" />
        </mxCell>
        <mxCell id="7Lk9t5gBkU4us9C5YFoJ-10" value="Is Eligible To Enroll" style="text;align=left;verticalAlign=top;spacingLeft=4;spacingRight=4;overflow=hidden;rotatable=0;points=[[0,0.5],[1,0.5]];portConstraint=eastwest;fontStyle=4" parent="7Lk9t5gBkU4us9C5YFoJ-6" vertex="1">
          <mxGeometry y="86" width="160" height="26" as="geometry" />
        </mxCell>
        <mxCell id="7Lk9t5gBkU4us9C5YFoJ-11" value="Get Seminars Taken" style="text;align=left;verticalAlign=top;spacingLeft=4;spacingRight=4;overflow=hidden;rotatable=0;points=[[0,0.5],[1,0.5]];portConstraint=eastwest;" parent="7Lk9t5gBkU4us9C5YFoJ-6" vertex="1">
          <mxGeometry y="112" width="160" height="26" as="geometry" />
        </mxCell>
        <mxCell id="7Lk9t5gBkU4us9C5YFoJ-12" value="" style="endArrow=block;endSize=10;endFill=0;shadow=0;strokeWidth=1;rounded=0;curved=0;edgeStyle=elbowEdgeStyle;elbow=vertical;" parent="WIyWlLk6GJQsqaUBKTNV-1" source="7Lk9t5gBkU4us9C5YFoJ-6" edge="1">
          <mxGeometry width="160" relative="1" as="geometry">
            <mxPoint x="380" y="-355" as="sourcePoint" />
            <mxPoint x="490" y="-350" as="targetPoint" />
          </mxGeometry>
        </mxCell>
        <mxCell id="7Lk9t5gBkU4us9C5YFoJ-13" value="Professor" style="swimlane;fontStyle=0;align=center;verticalAlign=top;childLayout=stackLayout;horizontal=1;startSize=26;horizontalStack=0;resizeParent=1;resizeLast=0;collapsible=1;marginBottom=0;rounded=0;shadow=0;strokeWidth=1;" parent="WIyWlLk6GJQsqaUBKTNV-1" vertex="1">
          <mxGeometry x="510" y="-198" width="160" height="70" as="geometry">
            <mxRectangle x="340" y="380" width="170" height="26" as="alternateBounds" />
          </mxGeometry>
        </mxCell>
        <mxCell id="7Lk9t5gBkU4us9C5YFoJ-14" value="Salary" style="text;align=left;verticalAlign=top;spacingLeft=4;spacingRight=4;overflow=hidden;rotatable=0;points=[[0,0.5],[1,0.5]];portConstraint=eastwest;" parent="7Lk9t5gBkU4us9C5YFoJ-13" vertex="1">
          <mxGeometry y="26" width="160" height="26" as="geometry" />
        </mxCell>
        <mxCell id="7Lk9t5gBkU4us9C5YFoJ-15" value="" style="line;html=1;strokeWidth=1;align=left;verticalAlign=middle;spacingTop=-1;spacingLeft=3;spacingRight=3;rotatable=0;labelPosition=right;points=[];portConstraint=eastwest;" parent="7Lk9t5gBkU4us9C5YFoJ-13" vertex="1">
          <mxGeometry y="52" width="160" height="8" as="geometry" />
        </mxCell>
        <mxCell id="7Lk9t5gBkU4us9C5YFoJ-16" value="" style="endArrow=block;endSize=10;endFill=0;shadow=0;strokeWidth=1;rounded=0;curved=0;edgeStyle=elbowEdgeStyle;elbow=vertical;" parent="WIyWlLk6GJQsqaUBKTNV-1" source="7Lk9t5gBkU4us9C5YFoJ-13" edge="1">
          <mxGeometry width="160" relative="1" as="geometry">
            <mxPoint x="390" y="-185" as="sourcePoint" />
            <mxPoint x="490" y="-350" as="targetPoint" />
          </mxGeometry>
        </mxCell>
        <mxCell id="7Lk9t5gBkU4us9C5YFoJ-21" value="User_roles" style="swimlane;fontStyle=1;align=center;verticalAlign=top;childLayout=stackLayout;horizontal=1;startSize=26;horizontalStack=0;resizeParent=1;resizeLast=0;collapsible=1;marginBottom=0;rounded=0;shadow=0;strokeWidth=1;" parent="WIyWlLk6GJQsqaUBKTNV-1" vertex="1">
          <mxGeometry x="-125" y="-150" width="160" height="90" as="geometry">
            <mxRectangle x="230" y="140" width="160" height="26" as="alternateBounds" />
          </mxGeometry>
        </mxCell>
        <mxCell id="9aXq1o78ZJMNKhqQbn4J-4" value="User" style="swimlane;fontStyle=1;align=center;verticalAlign=top;childLayout=stackLayout;horizontal=1;startSize=26;horizontalStack=0;resizeParent=1;resizeLast=0;collapsible=1;marginBottom=0;rounded=0;shadow=0;strokeWidth=1;" parent="WIyWlLk6GJQsqaUBKTNV-1" vertex="1">
          <mxGeometry x="85" y="-34" width="160" height="234" as="geometry">
            <mxRectangle x="550" y="140" width="160" height="26" as="alternateBounds" />
          </mxGeometry>
        </mxCell>
        <mxCell id="9aXq1o78ZJMNKhqQbn4J-5" value="Id" style="text;align=left;verticalAlign=top;spacingLeft=4;spacingRight=4;overflow=hidden;rotatable=0;points=[[0,0.5],[1,0.5]];portConstraint=eastwest;fontStyle=5" parent="9aXq1o78ZJMNKhqQbn4J-4" vertex="1">
          <mxGeometry y="26" width="160" height="26" as="geometry" />
        </mxCell>
        <mxCell id="9aXq1o78ZJMNKhqQbn4J-6" value="name :                        String" style="text;align=left;verticalAlign=top;spacingLeft=4;spacingRight=4;overflow=hidden;rotatable=0;points=[[0,0.5],[1,0.5]];portConstraint=eastwest;rounded=0;shadow=0;html=0;" parent="9aXq1o78ZJMNKhqQbn4J-4" vertex="1">
          <mxGeometry y="52" width="160" height="26" as="geometry" />
        </mxCell>
        <mxCell id="9aXq1o78ZJMNKhqQbn4J-8" value="address:                     String&#xa;" style="text;align=left;verticalAlign=top;spacingLeft=4;spacingRight=4;overflow=hidden;rotatable=0;points=[[0,0.5],[1,0.5]];portConstraint=eastwest;rounded=0;shadow=0;html=0;" parent="9aXq1o78ZJMNKhqQbn4J-4" vertex="1">
          <mxGeometry y="78" width="160" height="26" as="geometry" />
        </mxCell>
        <mxCell id="9aXq1o78ZJMNKhqQbn4J-9" value="phone:                        String" style="text;align=left;verticalAlign=top;spacingLeft=4;spacingRight=4;overflow=hidden;rotatable=0;points=[[0,0.5],[1,0.5]];portConstraint=eastwest;rounded=0;shadow=0;html=0;" parent="9aXq1o78ZJMNKhqQbn4J-4" vertex="1">
          <mxGeometry y="104" width="160" height="26" as="geometry" />
        </mxCell>
        <mxCell id="9aXq1o78ZJMNKhqQbn4J-10" value="username:                  String" style="text;align=left;verticalAlign=top;spacingLeft=4;spacingRight=4;overflow=hidden;rotatable=0;points=[[0,0.5],[1,0.5]];portConstraint=eastwest;rounded=0;shadow=0;html=0;" parent="9aXq1o78ZJMNKhqQbn4J-4" vertex="1">
          <mxGeometry y="130" width="160" height="26" as="geometry" />
        </mxCell>
        <mxCell id="9aXq1o78ZJMNKhqQbn4J-11" value="password:                   String" style="text;align=left;verticalAlign=top;spacingLeft=4;spacingRight=4;overflow=hidden;rotatable=0;points=[[0,0.5],[1,0.5]];portConstraint=eastwest;rounded=0;shadow=0;html=0;" parent="9aXq1o78ZJMNKhqQbn4J-4" vertex="1">
          <mxGeometry y="156" width="160" height="26" as="geometry" />
        </mxCell>
        <mxCell id="9aXq1o78ZJMNKhqQbn4J-13" value="phone:                        String" style="text;align=left;verticalAlign=top;spacingLeft=4;spacingRight=4;overflow=hidden;rotatable=0;points=[[0,0.5],[1,0.5]];portConstraint=eastwest;" parent="9aXq1o78ZJMNKhqQbn4J-4" vertex="1">
          <mxGeometry y="182" width="160" height="26" as="geometry" />
        </mxCell>
        <mxCell id="9aXq1o78ZJMNKhqQbn4J-7" value="isAdmin:                   boolean" style="text;align=left;verticalAlign=top;spacingLeft=4;spacingRight=4;overflow=hidden;rotatable=0;points=[[0,0.5],[1,0.5]];portConstraint=eastwest;rounded=0;shadow=0;html=0;" parent="9aXq1o78ZJMNKhqQbn4J-4" vertex="1">
          <mxGeometry y="208" width="160" height="26" as="geometry" />
        </mxCell>
        <mxCell id="9aXq1o78ZJMNKhqQbn4J-14" value="user_id : Long&#xa;" style="text;align=left;verticalAlign=top;spacingLeft=4;spacingRight=4;overflow=hidden;rotatable=0;points=[[0,0.5],[1,0.5]];portConstraint=eastwest;fontStyle=5" parent="WIyWlLk6GJQsqaUBKTNV-1" vertex="1">
          <mxGeometry x="-125" y="-118" width="160" height="26" as="geometry" />
        </mxCell>
        <mxCell id="9aXq1o78ZJMNKhqQbn4J-15" value="role_id : Long" style="text;align=left;verticalAlign=top;spacingLeft=4;spacingRight=4;overflow=hidden;rotatable=0;points=[[0,0.5],[1,0.5]];portConstraint=eastwest;fontStyle=5" parent="WIyWlLk6GJQsqaUBKTNV-1" vertex="1">
          <mxGeometry x="-125" y="-92" width="160" height="26" as="geometry" />
        </mxCell>
        <mxCell id="9aXq1o78ZJMNKhqQbn4J-16" value="" style="endArrow=none;endFill=0;html=1;edgeStyle=orthogonalEdgeStyle;align=left;verticalAlign=top;rounded=0;" parent="WIyWlLk6GJQsqaUBKTNV-1" edge="1">
          <mxGeometry x="-1" relative="1" as="geometry">
            <mxPoint x="-160" y="48" as="sourcePoint" />
            <mxPoint x="84.97" y="46" as="targetPoint" />
            <Array as="points">
              <mxPoint x="-160.03" y="50" />
              <mxPoint x="84.97" y="50" />
            </Array>
          </mxGeometry>
        </mxCell>
        <mxCell id="9aXq1o78ZJMNKhqQbn4J-17" value="1" style="edgeLabel;resizable=0;html=1;align=left;verticalAlign=bottom;" parent="9aXq1o78ZJMNKhqQbn4J-16" connectable="0" vertex="1">
          <mxGeometry x="-1" relative="1" as="geometry">
            <mxPoint x="10" y="-4" as="offset" />
          </mxGeometry>
        </mxCell>
        <mxCell id="9aXq1o78ZJMNKhqQbn4J-20" value="1" style="edgeLabel;resizable=0;html=1;align=left;verticalAlign=bottom;" parent="WIyWlLk6GJQsqaUBKTNV-1" connectable="0" vertex="1">
          <mxGeometry x="70" y="40" as="geometry" />
        </mxCell>
        <mxCell id="9aXq1o78ZJMNKhqQbn4J-23" value="Role" style="swimlane;fontStyle=1;align=center;verticalAlign=top;childLayout=stackLayout;horizontal=1;startSize=26;horizontalStack=0;resizeParent=1;resizeLast=0;collapsible=1;marginBottom=0;rounded=0;shadow=0;strokeWidth=1;" parent="WIyWlLk6GJQsqaUBKTNV-1" vertex="1">
          <mxGeometry x="-335" y="-4" width="175" height="104" as="geometry">
            <mxRectangle x="230" y="140" width="160" height="26" as="alternateBounds" />
          </mxGeometry>
        </mxCell>
        <mxCell id="9aXq1o78ZJMNKhqQbn4J-24" value="Id" style="text;align=left;verticalAlign=top;spacingLeft=4;spacingRight=4;overflow=hidden;rotatable=0;points=[[0,0.5],[1,0.5]];portConstraint=eastwest;fontStyle=5" parent="9aXq1o78ZJMNKhqQbn4J-23" vertex="1">
          <mxGeometry y="26" width="175" height="26" as="geometry" />
        </mxCell>
        <mxCell id="9aXq1o78ZJMNKhqQbn4J-25" value="roleName : RoleName&#xa;" style="text;align=left;verticalAlign=top;spacingLeft=4;spacingRight=4;overflow=hidden;rotatable=0;points=[[0,0.5],[1,0.5]];portConstraint=eastwest;" parent="9aXq1o78ZJMNKhqQbn4J-23" vertex="1">
          <mxGeometry y="52" width="175" height="26" as="geometry" />
        </mxCell>
        <mxCell id="9aXq1o78ZJMNKhqQbn4J-26" value="permissions : Set&lt;Permission&gt;" style="text;align=left;verticalAlign=top;spacingLeft=4;spacingRight=4;overflow=hidden;rotatable=0;points=[[0,0.5],[1,0.5]];portConstraint=eastwest;" parent="9aXq1o78ZJMNKhqQbn4J-23" vertex="1">
          <mxGeometry y="78" width="175" height="26" as="geometry" />
        </mxCell>
        <mxCell id="9aXq1o78ZJMNKhqQbn4J-27" value="&lt;div style=&quot;font-size: 13px;&quot;&gt;&lt;b&gt;&lt;font style=&quot;font-size: 13px;&quot;&gt;&amp;lt;&amp;lt;ENUM&amp;gt;&amp;gt;&lt;/font&gt;&lt;/b&gt;&lt;/div&gt;&lt;div style=&quot;font-size: 13px;&quot;&gt;&lt;b&gt;&lt;font style=&quot;font-size: 13px;&quot;&gt;PERMISSION&lt;/font&gt;&lt;/b&gt;&lt;/div&gt;&lt;div style=&quot;font-size: 13px;&quot;&gt;&lt;b&gt;&lt;font style=&quot;font-size: 13px;&quot;&gt;&lt;br&gt;&lt;/font&gt;&lt;/b&gt;&lt;/div&gt;" style="swimlane;childLayout=stackLayout;horizontal=1;startSize=50;horizontalStack=0;rounded=0;fontSize=14;fontStyle=0;strokeWidth=1;resizeParent=0;resizeLast=1;shadow=0;dashed=0;align=center;arcSize=4;whiteSpace=wrap;html=1;" parent="WIyWlLk6GJQsqaUBKTNV-1" vertex="1">
          <mxGeometry x="-800" y="80" width="230" height="200" as="geometry" />
        </mxCell>
        <mxCell id="9aXq1o78ZJMNKhqQbn4J-28" value="&lt;div&gt;USER_VIEW&lt;/div&gt;&lt;div&gt;ADMIN_READ&lt;/div&gt;&lt;div&gt;ADMIN_UPDATE&lt;/div&gt;&lt;div&gt;ADMIN_CREATE&lt;/div&gt;&lt;div&gt;ADMIN_DELETE&lt;br&gt;BUSINESS_OWNER_READ&lt;/div&gt;&lt;div&gt;BUSINESS_OWNER_UPDATE&lt;/div&gt;&lt;div&gt;BUSINESS_OWNER_CREATE&lt;/div&gt;&lt;div&gt;BUSINESS_OWNER_DELETE&lt;br&gt;&lt;/div&gt;" style="align=left;strokeColor=none;fillColor=none;spacingLeft=4;fontSize=12;verticalAlign=top;resizable=0;rotatable=0;part=1;html=1;" parent="9aXq1o78ZJMNKhqQbn4J-27" vertex="1">
          <mxGeometry y="50" width="230" height="150" as="geometry" />
        </mxCell>
        <mxCell id="9aXq1o78ZJMNKhqQbn4J-29" value="&lt;&lt;ENUM&gt;&gt;&#xa;RoleName" style="swimlane;childLayout=stackLayout;horizontal=1;startSize=50;horizontalStack=0;rounded=0;fontSize=14;fontStyle=1;strokeWidth=1;resizeParent=0;resizeLast=1;shadow=0;dashed=0;align=center;arcSize=4;swimlaneLine=1;" parent="WIyWlLk6GJQsqaUBKTNV-1" vertex="1">
          <mxGeometry x="-610" y="-110" width="160" height="110" as="geometry" />
        </mxCell>
        <mxCell id="9aXq1o78ZJMNKhqQbn4J-30" value="&lt;div&gt;USER&lt;/div&gt;&lt;div&gt;ADMIN&lt;/div&gt;&lt;div&gt;BUSINESS_OWNER&lt;br&gt;&lt;/div&gt;" style="align=left;strokeColor=none;fillColor=none;spacingLeft=4;fontSize=12;verticalAlign=top;resizable=0;rotatable=0;part=1;html=1;" parent="9aXq1o78ZJMNKhqQbn4J-29" vertex="1">
          <mxGeometry y="50" width="160" height="60" as="geometry" />
        </mxCell>
        <mxCell id="9aXq1o78ZJMNKhqQbn4J-32" value="" style="endArrow=none;endFill=0;html=1;edgeStyle=orthogonalEdgeStyle;align=left;verticalAlign=top;rounded=0;" parent="WIyWlLk6GJQsqaUBKTNV-1" source="9aXq1o78ZJMNKhqQbn4J-26" target="9aXq1o78ZJMNKhqQbn4J-27" edge="1">
          <mxGeometry x="-1" relative="1" as="geometry">
            <mxPoint x="-690" y="100" as="sourcePoint" />
            <mxPoint x="-530" y="130" as="targetPoint" />
            <Array as="points">
              <mxPoint x="-320" y="150" />
            </Array>
          </mxGeometry>
        </mxCell>
        <mxCell id="9aXq1o78ZJMNKhqQbn4J-33" value="1" style="edgeLabel;resizable=0;html=1;align=left;verticalAlign=bottom;" parent="9aXq1o78ZJMNKhqQbn4J-32" connectable="0" vertex="1">
          <mxGeometry x="-1" relative="1" as="geometry">
            <mxPoint x="-15" y="22" as="offset" />
          </mxGeometry>
        </mxCell>
        <mxCell id="9aXq1o78ZJMNKhqQbn4J-43" value="role_permissions" style="swimlane;fontStyle=1;align=center;verticalAlign=top;childLayout=stackLayout;horizontal=1;startSize=26;horizontalStack=0;resizeParent=1;resizeLast=0;collapsible=1;marginBottom=0;rounded=0;shadow=0;strokeWidth=1;" parent="WIyWlLk6GJQsqaUBKTNV-1" vertex="1">
          <mxGeometry x="-470" y="200" width="160" height="90" as="geometry">
            <mxRectangle x="230" y="140" width="160" height="26" as="alternateBounds" />
          </mxGeometry>
        </mxCell>
        <mxCell id="9aXq1o78ZJMNKhqQbn4J-50" value="" style="endArrow=none;dashed=1;html=1;dashPattern=1 3;strokeWidth=2;rounded=0;entryX=0.25;entryY=0;entryDx=0;entryDy=0;" parent="9aXq1o78ZJMNKhqQbn4J-43" target="9aXq1o78ZJMNKhqQbn4J-43" edge="1">
          <mxGeometry width="50" height="50" relative="1" as="geometry">
            <mxPoint x="40" y="-50" as="sourcePoint" />
            <mxPoint x="95" as="targetPoint" />
          </mxGeometry>
        </mxCell>
        <mxCell id="9aXq1o78ZJMNKhqQbn4J-53" value="roleName :: String" style="text;align=left;verticalAlign=top;spacingLeft=4;spacingRight=4;overflow=hidden;rotatable=0;points=[[0,0.5],[1,0.5]];portConstraint=eastwest;fontStyle=5" parent="9aXq1o78ZJMNKhqQbn4J-43" vertex="1">
          <mxGeometry y="26" width="160" height="26" as="geometry" />
        </mxCell>
        <mxCell id="9aXq1o78ZJMNKhqQbn4J-54" value="permission : String" style="text;align=left;verticalAlign=top;spacingLeft=4;spacingRight=4;overflow=hidden;rotatable=0;points=[[0,0.5],[1,0.5]];portConstraint=eastwest;fontStyle=5" parent="9aXq1o78ZJMNKhqQbn4J-43" vertex="1">
          <mxGeometry y="52" width="160" height="26" as="geometry" />
        </mxCell>
        <mxCell id="9aXq1o78ZJMNKhqQbn4J-44" value="" style="endArrow=none;endFill=0;html=1;align=left;verticalAlign=top;rounded=0;dashed=1;entryX=0;entryY=0.5;entryDx=0;entryDy=0;exitX=1;exitY=0.25;exitDx=0;exitDy=0;" parent="WIyWlLk6GJQsqaUBKTNV-1" source="9aXq1o78ZJMNKhqQbn4J-30" target="9aXq1o78ZJMNKhqQbn4J-25" edge="1">
          <mxGeometry x="-1" relative="1" as="geometry">
            <mxPoint x="-450" y="-79" as="sourcePoint" />
            <mxPoint x="-340" y="60" as="targetPoint" />
          </mxGeometry>
        </mxCell>
        <mxCell id="9aXq1o78ZJMNKhqQbn4J-45" value="1" style="edgeLabel;resizable=0;html=1;align=left;verticalAlign=bottom;" parent="9aXq1o78ZJMNKhqQbn4J-44" connectable="0" vertex="1">
          <mxGeometry x="-1" relative="1" as="geometry">
            <mxPoint x="10" as="offset" />
          </mxGeometry>
        </mxCell>
        <mxCell id="9aXq1o78ZJMNKhqQbn4J-51" value="" style="endArrow=none;dashed=1;html=1;dashPattern=1 3;strokeWidth=2;rounded=0;" parent="WIyWlLk6GJQsqaUBKTNV-1" edge="1">
          <mxGeometry width="50" height="50" relative="1" as="geometry">
            <mxPoint x="-45.42" y="-52" as="sourcePoint" />
            <mxPoint x="-45.42" y="48" as="targetPoint" />
          </mxGeometry>
        </mxCell>
        <mxCell id="9aXq1o78ZJMNKhqQbn4J-55" value="Company" style="swimlane;fontStyle=1;align=center;verticalAlign=top;childLayout=stackLayout;horizontal=1;startSize=26;horizontalStack=0;resizeParent=1;resizeLast=0;collapsible=1;marginBottom=0;rounded=0;shadow=0;strokeWidth=1;" parent="WIyWlLk6GJQsqaUBKTNV-1" vertex="1">
          <mxGeometry x="330" y="-34" width="160" height="204" as="geometry">
            <mxRectangle x="550" y="140" width="160" height="26" as="alternateBounds" />
          </mxGeometry>
        </mxCell>
        <mxCell id="9aXq1o78ZJMNKhqQbn4J-56" value="Id" style="text;align=left;verticalAlign=top;spacingLeft=4;spacingRight=4;overflow=hidden;rotatable=0;points=[[0,0.5],[1,0.5]];portConstraint=eastwest;fontStyle=5" parent="9aXq1o78ZJMNKhqQbn4J-55" vertex="1">
          <mxGeometry y="26" width="160" height="26" as="geometry" />
        </mxCell>
        <mxCell id="9aXq1o78ZJMNKhqQbn4J-57" value="name:                        String" style="text;align=left;verticalAlign=top;spacingLeft=4;spacingRight=4;overflow=hidden;rotatable=0;points=[[0,0.5],[1,0.5]];portConstraint=eastwest;rounded=0;shadow=0;html=0;" parent="9aXq1o78ZJMNKhqQbn4J-55" vertex="1">
          <mxGeometry y="52" width="160" height="26" as="geometry" />
        </mxCell>
        <mxCell id="9aXq1o78ZJMNKhqQbn4J-58" value="address:                    String" style="text;align=left;verticalAlign=top;spacingLeft=4;spacingRight=4;overflow=hidden;rotatable=0;points=[[0,0.5],[1,0.5]];portConstraint=eastwest;rounded=0;shadow=0;html=0;" parent="9aXq1o78ZJMNKhqQbn4J-55" vertex="1">
          <mxGeometry y="78" width="160" height="22" as="geometry" />
        </mxCell>
        <mxCell id="9aXq1o78ZJMNKhqQbn4J-59" value="phone:                       String" style="text;align=left;verticalAlign=top;spacingLeft=4;spacingRight=4;overflow=hidden;rotatable=0;points=[[0,0.5],[1,0.5]];portConstraint=eastwest;rounded=0;shadow=0;html=0;" parent="9aXq1o78ZJMNKhqQbn4J-55" vertex="1">
          <mxGeometry y="100" width="160" height="26" as="geometry" />
        </mxCell>
        <mxCell id="9aXq1o78ZJMNKhqQbn4J-60" value="website:                     String" style="text;align=left;verticalAlign=top;spacingLeft=4;spacingRight=4;overflow=hidden;rotatable=0;points=[[0,0.5],[1,0.5]];portConstraint=eastwest;rounded=0;shadow=0;html=0;" parent="9aXq1o78ZJMNKhqQbn4J-55" vertex="1">
          <mxGeometry y="126" width="160" height="26" as="geometry" />
        </mxCell>
        <mxCell id="9aXq1o78ZJMNKhqQbn4J-61" value="password:                  String" style="text;align=left;verticalAlign=top;spacingLeft=4;spacingRight=4;overflow=hidden;rotatable=0;points=[[0,0.5],[1,0.5]];portConstraint=eastwest;rounded=0;shadow=0;html=0;" parent="9aXq1o78ZJMNKhqQbn4J-55" vertex="1">
          <mxGeometry y="152" width="160" height="26" as="geometry" />
        </mxCell>
        <mxCell id="9aXq1o78ZJMNKhqQbn4J-62" value="website:                     String" style="text;align=left;verticalAlign=top;spacingLeft=4;spacingRight=4;overflow=hidden;rotatable=0;points=[[0,0.5],[1,0.5]];portConstraint=eastwest;" parent="9aXq1o78ZJMNKhqQbn4J-55" vertex="1">
          <mxGeometry y="178" width="160" height="26" as="geometry" />
        </mxCell>
        <mxCell id="9aXq1o78ZJMNKhqQbn4J-65" value="CompanyCategory&#xa;" style="swimlane;fontStyle=1;align=center;verticalAlign=top;childLayout=stackLayout;horizontal=1;startSize=26;horizontalStack=0;resizeParent=1;resizeLast=0;collapsible=1;marginBottom=0;rounded=0;shadow=0;strokeWidth=1;" parent="WIyWlLk6GJQsqaUBKTNV-1" vertex="1">
          <mxGeometry x="550" y="-92" width="160" height="116" as="geometry">
            <mxRectangle x="550" y="140" width="160" height="26" as="alternateBounds" />
          </mxGeometry>
        </mxCell>
        <mxCell id="9aXq1o78ZJMNKhqQbn4J-66" value="Id" style="text;align=left;verticalAlign=top;spacingLeft=4;spacingRight=4;overflow=hidden;rotatable=0;points=[[0,0.5],[1,0.5]];portConstraint=eastwest;fontStyle=5" parent="9aXq1o78ZJMNKhqQbn4J-65" vertex="1">
          <mxGeometry y="26" width="160" height="26" as="geometry" />
        </mxCell>
        <mxCell id="9aXq1o78ZJMNKhqQbn4J-67" value="label" style="text;align=left;verticalAlign=top;spacingLeft=4;spacingRight=4;overflow=hidden;rotatable=0;points=[[0,0.5],[1,0.5]];portConstraint=eastwest;rounded=0;shadow=0;html=0;" parent="9aXq1o78ZJMNKhqQbn4J-65" vertex="1">
          <mxGeometry y="52" width="160" height="26" as="geometry" />
        </mxCell>
        <mxCell id="9aXq1o78ZJMNKhqQbn4J-68" value="description" style="text;align=left;verticalAlign=top;spacingLeft=4;spacingRight=4;overflow=hidden;rotatable=0;points=[[0,0.5],[1,0.5]];portConstraint=eastwest;rounded=0;shadow=0;html=0;" parent="9aXq1o78ZJMNKhqQbn4J-65" vertex="1">
          <mxGeometry y="78" width="160" height="26" as="geometry" />
        </mxCell>
        <mxCell id="9aXq1o78ZJMNKhqQbn4J-73" value="product" style="swimlane;fontStyle=1;align=center;verticalAlign=top;childLayout=stackLayout;horizontal=1;startSize=26;horizontalStack=0;resizeParent=1;resizeLast=0;collapsible=1;marginBottom=0;rounded=0;shadow=0;strokeWidth=1;" parent="WIyWlLk6GJQsqaUBKTNV-1" vertex="1">
          <mxGeometry x="320" y="220" width="160" height="190" as="geometry">
            <mxRectangle x="550" y="140" width="160" height="26" as="alternateBounds" />
          </mxGeometry>
        </mxCell>
        <mxCell id="9aXq1o78ZJMNKhqQbn4J-74" value="Id" style="text;align=left;verticalAlign=top;spacingLeft=4;spacingRight=4;overflow=hidden;rotatable=0;points=[[0,0.5],[1,0.5]];portConstraint=eastwest;fontStyle=5" parent="9aXq1o78ZJMNKhqQbn4J-73" vertex="1">
          <mxGeometry y="26" width="160" height="26" as="geometry" />
        </mxCell>
        <mxCell id="9aXq1o78ZJMNKhqQbn4J-75" value="name:                        String" style="text;align=left;verticalAlign=top;spacingLeft=4;spacingRight=4;overflow=hidden;rotatable=0;points=[[0,0.5],[1,0.5]];portConstraint=eastwest;rounded=0;shadow=0;html=0;" parent="9aXq1o78ZJMNKhqQbn4J-73" vertex="1">
          <mxGeometry y="52" width="160" height="26" as="geometry" />
        </mxCell>
        <mxCell id="9aXq1o78ZJMNKhqQbn4J-76" value="description:                String" style="text;align=left;verticalAlign=top;spacingLeft=4;spacingRight=4;overflow=hidden;rotatable=0;points=[[0,0.5],[1,0.5]];portConstraint=eastwest;rounded=0;shadow=0;html=0;" parent="9aXq1o78ZJMNKhqQbn4J-73" vertex="1">
          <mxGeometry y="78" width="160" height="26" as="geometry" />
        </mxCell>
        <mxCell id="9aXq1o78ZJMNKhqQbn4J-77" value="price:                        double" style="text;align=left;verticalAlign=top;spacingLeft=4;spacingRight=4;overflow=hidden;rotatable=0;points=[[0,0.5],[1,0.5]];portConstraint=eastwest;rounded=0;shadow=0;html=0;" parent="9aXq1o78ZJMNKhqQbn4J-73" vertex="1">
          <mxGeometry y="104" width="160" height="26" as="geometry" />
        </mxCell>
        <mxCell id="9aXq1o78ZJMNKhqQbn4J-78" value="picture:                      String" style="text;align=left;verticalAlign=top;spacingLeft=4;spacingRight=4;overflow=hidden;rotatable=0;points=[[0,0.5],[1,0.5]];portConstraint=eastwest;rounded=0;shadow=0;html=0;" parent="9aXq1o78ZJMNKhqQbn4J-73" vertex="1">
          <mxGeometry y="130" width="160" height="26" as="geometry" />
        </mxCell>
        <mxCell id="8Cazj5PrP6YZawm6z_r7-0" value="available:               boolean" style="text;align=left;verticalAlign=top;spacingLeft=4;spacingRight=4;overflow=hidden;rotatable=0;points=[[0,0.5],[1,0.5]];portConstraint=eastwest;rounded=0;shadow=0;html=0;" vertex="1" parent="9aXq1o78ZJMNKhqQbn4J-73">
          <mxGeometry y="156" width="160" height="34" as="geometry" />
        </mxCell>
        <mxCell id="9aXq1o78ZJMNKhqQbn4J-81" value="CategoryProduct" style="swimlane;fontStyle=1;align=center;verticalAlign=top;childLayout=stackLayout;horizontal=1;startSize=26;horizontalStack=0;resizeParent=1;resizeLast=0;collapsible=1;marginBottom=0;rounded=0;shadow=0;strokeWidth=1;" parent="WIyWlLk6GJQsqaUBKTNV-1" vertex="1">
          <mxGeometry x="85" y="250" width="160" height="110" as="geometry">
            <mxRectangle x="550" y="140" width="160" height="26" as="alternateBounds" />
          </mxGeometry>
        </mxCell>
        <mxCell id="9aXq1o78ZJMNKhqQbn4J-82" value="Id" style="text;align=left;verticalAlign=top;spacingLeft=4;spacingRight=4;overflow=hidden;rotatable=0;points=[[0,0.5],[1,0.5]];portConstraint=eastwest;fontStyle=5" parent="9aXq1o78ZJMNKhqQbn4J-81" vertex="1">
          <mxGeometry y="26" width="160" height="26" as="geometry" />
        </mxCell>
        <mxCell id="9aXq1o78ZJMNKhqQbn4J-83" value="name:                        String" style="text;align=left;verticalAlign=top;spacingLeft=4;spacingRight=4;overflow=hidden;rotatable=0;points=[[0,0.5],[1,0.5]];portConstraint=eastwest;rounded=0;shadow=0;html=0;" parent="9aXq1o78ZJMNKhqQbn4J-81" vertex="1">
          <mxGeometry y="52" width="160" height="26" as="geometry" />
        </mxCell>
        <mxCell id="9aXq1o78ZJMNKhqQbn4J-84" value="description:                String" style="text;align=left;verticalAlign=top;spacingLeft=4;spacingRight=4;overflow=hidden;rotatable=0;points=[[0,0.5],[1,0.5]];portConstraint=eastwest;rounded=0;shadow=0;html=0;" parent="9aXq1o78ZJMNKhqQbn4J-81" vertex="1">
          <mxGeometry y="78" width="160" height="26" as="geometry" />
        </mxCell>
        <mxCell id="9aXq1o78ZJMNKhqQbn4J-87" value="1" style="edgeLabel;resizable=0;html=1;align=left;verticalAlign=bottom;" parent="WIyWlLk6GJQsqaUBKTNV-1" connectable="0" vertex="1">
          <mxGeometry x="-560" y="132" as="geometry" />
        </mxCell>
        <mxCell id="8Cazj5PrP6YZawm6z_r7-1" value="Inventory" style="swimlane;fontStyle=1;align=center;verticalAlign=top;childLayout=stackLayout;horizontal=1;startSize=26;horizontalStack=0;resizeParent=1;resizeLast=0;collapsible=1;marginBottom=0;rounded=0;shadow=0;strokeWidth=1;" vertex="1" parent="WIyWlLk6GJQsqaUBKTNV-1">
          <mxGeometry x="530" y="440" width="160" height="130" as="geometry">
            <mxRectangle x="550" y="140" width="160" height="26" as="alternateBounds" />
          </mxGeometry>
        </mxCell>
        <mxCell id="8Cazj5PrP6YZawm6z_r7-2" value="Id" style="text;align=left;verticalAlign=top;spacingLeft=4;spacingRight=4;overflow=hidden;rotatable=0;points=[[0,0.5],[1,0.5]];portConstraint=eastwest;fontStyle=5" vertex="1" parent="8Cazj5PrP6YZawm6z_r7-1">
          <mxGeometry y="26" width="160" height="26" as="geometry" />
        </mxCell>
        <mxCell id="8Cazj5PrP6YZawm6z_r7-3" value="skuCode:                   String" style="text;align=left;verticalAlign=top;spacingLeft=4;spacingRight=4;overflow=hidden;rotatable=0;points=[[0,0.5],[1,0.5]];portConstraint=eastwest;rounded=0;shadow=0;html=0;" vertex="1" parent="8Cazj5PrP6YZawm6z_r7-1">
          <mxGeometry y="52" width="160" height="26" as="geometry" />
        </mxCell>
        <mxCell id="8Cazj5PrP6YZawm6z_r7-4" value="quantity:                   integer" style="text;align=left;verticalAlign=top;spacingLeft=4;spacingRight=4;overflow=hidden;rotatable=0;points=[[0,0.5],[1,0.5]];portConstraint=eastwest;rounded=0;shadow=0;html=0;" vertex="1" parent="8Cazj5PrP6YZawm6z_r7-1">
          <mxGeometry y="78" width="160" height="26" as="geometry" />
        </mxCell>
        <mxCell id="8Cazj5PrP6YZawm6z_r7-23" value="quantity:                   integer" style="text;align=left;verticalAlign=top;spacingLeft=4;spacingRight=4;overflow=hidden;rotatable=0;points=[[0,0.5],[1,0.5]];portConstraint=eastwest;rounded=0;shadow=0;html=0;" vertex="1" parent="8Cazj5PrP6YZawm6z_r7-1">
          <mxGeometry y="104" width="160" height="26" as="geometry" />
        </mxCell>
        <mxCell id="8Cazj5PrP6YZawm6z_r7-12" value="Offer&#xa;" style="swimlane;fontStyle=1;align=center;verticalAlign=top;childLayout=stackLayout;horizontal=1;startSize=26;horizontalStack=0;resizeParent=1;resizeLast=0;collapsible=1;marginBottom=0;rounded=0;shadow=0;strokeWidth=1;" vertex="1" parent="WIyWlLk6GJQsqaUBKTNV-1">
          <mxGeometry x="550" y="40" width="160" height="312" as="geometry">
            <mxRectangle x="550" y="140" width="160" height="26" as="alternateBounds" />
          </mxGeometry>
        </mxCell>
        <mxCell id="8Cazj5PrP6YZawm6z_r7-13" value="Id" style="text;align=left;verticalAlign=top;spacingLeft=4;spacingRight=4;overflow=hidden;rotatable=0;points=[[0,0.5],[1,0.5]];portConstraint=eastwest;fontStyle=5" vertex="1" parent="8Cazj5PrP6YZawm6z_r7-12">
          <mxGeometry y="26" width="160" height="26" as="geometry" />
        </mxCell>
        <mxCell id="8Cazj5PrP6YZawm6z_r7-14" value="code:                        String    " style="text;align=left;verticalAlign=top;spacingLeft=4;spacingRight=4;overflow=hidden;rotatable=0;points=[[0,0.5],[1,0.5]];portConstraint=eastwest;rounded=0;shadow=0;html=0;" vertex="1" parent="8Cazj5PrP6YZawm6z_r7-12">
          <mxGeometry y="52" width="160" height="26" as="geometry" />
        </mxCell>
        <mxCell id="8Cazj5PrP6YZawm6z_r7-15" value="label:                        String" style="text;align=left;verticalAlign=top;spacingLeft=4;spacingRight=4;overflow=hidden;rotatable=0;points=[[0,0.5],[1,0.5]];portConstraint=eastwest;rounded=0;shadow=0;html=0;" vertex="1" parent="8Cazj5PrP6YZawm6z_r7-12">
          <mxGeometry y="78" width="160" height="26" as="geometry" />
        </mxCell>
        <mxCell id="8Cazj5PrP6YZawm6z_r7-16" value="description:              String" style="text;align=left;verticalAlign=top;spacingLeft=4;spacingRight=4;overflow=hidden;rotatable=0;points=[[0,0.5],[1,0.5]];portConstraint=eastwest;rounded=0;shadow=0;html=0;" vertex="1" parent="8Cazj5PrP6YZawm6z_r7-12">
          <mxGeometry y="104" width="160" height="26" as="geometry" />
        </mxCell>
        <mxCell id="8Cazj5PrP6YZawm6z_r7-17" value="currency:                  String" style="text;align=left;verticalAlign=top;spacingLeft=4;spacingRight=4;overflow=hidden;rotatable=0;points=[[0,0.5],[1,0.5]];portConstraint=eastwest;rounded=0;shadow=0;html=0;" vertex="1" parent="8Cazj5PrP6YZawm6z_r7-12">
          <mxGeometry y="130" width="160" height="26" as="geometry" />
        </mxCell>
        <mxCell id="8Cazj5PrP6YZawm6z_r7-19" value="startDate:           LocalDate" style="text;align=left;verticalAlign=top;spacingLeft=4;spacingRight=4;overflow=hidden;rotatable=0;points=[[0,0.5],[1,0.5]];portConstraint=eastwest;rounded=0;shadow=0;html=0;" vertex="1" parent="8Cazj5PrP6YZawm6z_r7-12">
          <mxGeometry y="156" width="160" height="26" as="geometry" />
        </mxCell>
        <mxCell id="8Cazj5PrP6YZawm6z_r7-18" value="endDate:            LocalDate   " style="text;align=left;verticalAlign=top;spacingLeft=4;spacingRight=4;overflow=hidden;rotatable=0;points=[[0,0.5],[1,0.5]];portConstraint=eastwest;rounded=0;shadow=0;html=0;" vertex="1" parent="8Cazj5PrP6YZawm6z_r7-12">
          <mxGeometry y="182" width="160" height="26" as="geometry" />
        </mxCell>
        <mxCell id="8Cazj5PrP6YZawm6z_r7-21" value="offerStatus:               String" style="text;align=left;verticalAlign=top;spacingLeft=4;spacingRight=4;overflow=hidden;rotatable=0;points=[[0,0.5],[1,0.5]];portConstraint=eastwest;rounded=0;shadow=0;html=0;" vertex="1" parent="8Cazj5PrP6YZawm6z_r7-12">
          <mxGeometry y="208" width="160" height="26" as="geometry" />
        </mxCell>
        <mxCell id="8Cazj5PrP6YZawm6z_r7-24" value="value:                       double" style="text;align=left;verticalAlign=top;spacingLeft=4;spacingRight=4;overflow=hidden;rotatable=0;points=[[0,0.5],[1,0.5]];portConstraint=eastwest;rounded=0;shadow=0;html=0;" vertex="1" parent="8Cazj5PrP6YZawm6z_r7-12">
          <mxGeometry y="234" width="160" height="26" as="geometry" />
        </mxCell>
        <mxCell id="8Cazj5PrP6YZawm6z_r7-22" value="offerType:                  String" style="text;align=left;verticalAlign=top;spacingLeft=4;spacingRight=4;overflow=hidden;rotatable=0;points=[[0,0.5],[1,0.5]];portConstraint=eastwest;rounded=0;shadow=0;html=0;" vertex="1" parent="8Cazj5PrP6YZawm6z_r7-12">
          <mxGeometry y="260" width="160" height="26" as="geometry" />
        </mxCell>
        <mxCell id="8Cazj5PrP6YZawm6z_r7-25" value="commission:             double" style="text;align=left;verticalAlign=top;spacingLeft=4;spacingRight=4;overflow=hidden;rotatable=0;points=[[0,0.5],[1,0.5]];portConstraint=eastwest;rounded=0;shadow=0;html=0;" vertex="1" parent="8Cazj5PrP6YZawm6z_r7-12">
          <mxGeometry y="286" width="160" height="26" as="geometry" />
        </mxCell>
      </root>
    </mxGraphModel>
  </diagram>
</mxfile>
